<?xml version="1.0" encoding="UTF-8"?> <svg xmlns="http://www.w3.org/2000/svg" xmlns:xlink="http://www.w3.org/1999/xlink" id="Group_4852" data-name="Group 4852" width="60.5" height="56.222" viewBox="0 0 60.5 56.222"><defs><clipPath id="clip-path"><rect id="Rectangle_2504" data-name="Rectangle 2504" width="60.5" height="56.223" fill="none"></rect></clipPath></defs><g id="Group_4851" data-name="Group 4851" transform="translate(0 0)" clip-path="url(#clip-path)"><path id="Path_15396" data-name="Path 15396" d="M27.118,93.482a.173.173,0,0,0,0,.327.628.628,0,0,0,.566,0,.173.173,0,0,0,0-.327.624.624,0,0,0-.566,0" transform="translate(17.036 -39.227)" fill="#16110d"></path><path id="Path_15397" data-name="Path 15397" d="M29.671,92.008a.173.173,0,0,0,0,.327.628.628,0,0,0,.566,0,.173.173,0,0,0,0-.327.624.624,0,0,0-.566,0" transform="translate(13.002 -38.608)" fill="#16110d"></path><path id="Path_15398" data-name="Path 15398" d="M32.224,90.534a.173.173,0,0,0,0,.327.628.628,0,0,0,.566,0,.173.173,0,0,0,0-.327.624.624,0,0,0-.566,0" transform="translate(8.968 -37.989)" fill="#16110d"></path><path id="Path_15399" data-name="Path 15399" d="M35.342,89.06a.624.624,0,0,0-.566,0,.173.173,0,0,0,0,.327.628.628,0,0,0,.566,0,.173.173,0,0,0,0-.327" transform="translate(4.936 -37.37)" fill="#16110d"></path><path id="Path_15400" data-name="Path 15400" d="M37.9,87.586a.624.624,0,0,0-.566,0,.173.173,0,0,0,0,.327.628.628,0,0,0,.566,0,.173.173,0,0,0,0-.327" transform="translate(0.902 -36.751)" fill="#16110d"></path><path id="Path_15401" data-name="Path 15401" d="M40.448,86.112a.624.624,0,0,0-.566,0,.173.173,0,0,0,0,.327.628.628,0,0,0,.566,0,.173.173,0,0,0,0-.327" transform="translate(-3.132 -36.132)" fill="#16110d"></path><path id="Path_15402" data-name="Path 15402" d="M43,84.639a.624.624,0,0,0-.566,0,.173.173,0,0,0,0,.327.628.628,0,0,0,.566,0,.173.173,0,0,0,0-.327" transform="translate(-7.166 -35.514)" fill="#16110d"></path><path id="Path_15403" data-name="Path 15403" d="M45.19,83.214a.173.173,0,0,0,0,.327.628.628,0,0,0,.566,0Z" transform="translate(-11.403 -34.944)" fill="#16110d"></path><path id="Path_15404" data-name="Path 15404" d="M47.742,81.74a.173.173,0,0,0,0,.327.628.628,0,0,0,.566,0Z" transform="translate(-15.435 -34.325)" fill="#16110d"></path><path id="Path_15405" data-name="Path 15405" d="M50.3,80.266a.173.173,0,0,0,0,.327.628.628,0,0,0,.566,0Z" transform="translate(-19.469 -33.706)" fill="#16110d"></path><path id="Path_15406" data-name="Path 15406" d="M53.212,78.743a.624.624,0,0,0-.566,0,.173.173,0,0,0,0,.327.628.628,0,0,0,.566,0,.173.173,0,0,0,0-.327" transform="translate(-23.3 -33.038)" fill="#16110d"></path><path id="Path_15407" data-name="Path 15407" d="M24.566,92.008a.173.173,0,0,0,0,.327.628.628,0,0,0,.566,0,.173.173,0,0,0,0-.327.624.624,0,0,0-.566,0" transform="translate(21.068 -38.608)" fill="#16110d"></path><path id="Path_15408" data-name="Path 15408" d="M27.118,90.534a.173.173,0,0,0,0,.327.628.628,0,0,0,.566,0,.173.173,0,0,0,0-.327.624.624,0,0,0-.566,0" transform="translate(17.036 -37.989)" fill="#16110d"></path><path id="Path_15409" data-name="Path 15409" d="M29.671,89.06a.173.173,0,0,0,0,.327.628.628,0,0,0,.566,0,.173.173,0,0,0,0-.327.624.624,0,0,0-.566,0" transform="translate(13.002 -37.37)" fill="#16110d"></path><path id="Path_15410" data-name="Path 15410" d="M16.907,93.482a.173.173,0,0,0,0,.327.628.628,0,0,0,.566,0,.173.173,0,0,0,0-.327.624.624,0,0,0-.566,0" transform="translate(33.17 -39.227)" fill="#16110d"></path><path id="Path_15411" data-name="Path 15411" d="M19.46,92.008a.173.173,0,0,0,0,.327.628.628,0,0,0,.566,0,.173.173,0,0,0,0-.327.624.624,0,0,0-.566,0" transform="translate(29.136 -38.608)" fill="#16110d"></path><path id="Path_15412" data-name="Path 15412" d="M22.013,90.534a.173.173,0,0,0,0,.327.628.628,0,0,0,.566,0,.173.173,0,0,0,0-.327.624.624,0,0,0-.566,0" transform="translate(25.102 -37.989)" fill="#16110d"></path><path id="Path_15413" data-name="Path 15413" d="M24.566,89.06a.173.173,0,0,0,0,.327.628.628,0,0,0,.566,0,.173.173,0,0,0,0-.327.624.624,0,0,0-.566,0" transform="translate(21.068 -37.37)" fill="#16110d"></path><path id="Path_15414" data-name="Path 15414" d="M27,87.962a.624.624,0,0,0,.566,0,.173.173,0,0,0,0-.327Z" transform="translate(17.153 -36.8)" fill="#16110d"></path><path id="Path_15415" data-name="Path 15415" d="M11.8,93.482a.173.173,0,0,0,0,.327.628.628,0,0,0,.566,0,.173.173,0,0,0,0-.327.624.624,0,0,0-.566,0" transform="translate(41.236 -39.227)" fill="#16110d"></path><path id="Path_15416" data-name="Path 15416" d="M14.355,92.008a.173.173,0,0,0,0,.327.628.628,0,0,0,.566,0,.173.173,0,0,0,0-.327.624.624,0,0,0-.566,0" transform="translate(37.203 -38.608)" fill="#16110d"></path><path id="Path_15417" data-name="Path 15417" d="M16.907,90.534a.173.173,0,0,0,0,.327.628.628,0,0,0,.566,0,.173.173,0,0,0,0-.327.624.624,0,0,0-.566,0" transform="translate(33.17 -37.989)" fill="#16110d"></path><path id="Path_15418" data-name="Path 15418" d="M19.46,89.06a.173.173,0,0,0,0,.327.628.628,0,0,0,.566,0,.173.173,0,0,0,0-.327.624.624,0,0,0-.566,0" transform="translate(29.136 -37.37)" fill="#16110d"></path><path id="Path_15419" data-name="Path 15419" d="M22.013,87.586a.173.173,0,0,0,0,.327.628.628,0,0,0,.566,0,.173.173,0,0,0,0-.327.624.624,0,0,0-.566,0" transform="translate(25.102 -36.751)" fill="#16110d"></path><path id="Path_15420" data-name="Path 15420" d="M24.448,86.439a.624.624,0,0,0,.566,0,.173.173,0,0,0,0-.327.628.628,0,0,0-.566,0Z" transform="translate(21.186 -36.132)" fill="#16110d"></path><path id="Path_15421" data-name="Path 15421" d="M9.249,92.008a.173.173,0,0,0,0,.327.628.628,0,0,0,.566,0,.173.173,0,0,0,0-.327.624.624,0,0,0-.566,0" transform="translate(45.27 -38.608)" fill="#16110d"></path><path id="Path_15422" data-name="Path 15422" d="M11.8,90.534a.173.173,0,0,0,0,.327.628.628,0,0,0,.566,0,.173.173,0,0,0,0-.327.624.624,0,0,0-.566,0" transform="translate(41.236 -37.989)" fill="#16110d"></path><path id="Path_15423" data-name="Path 15423" d="M14.355,89.06a.173.173,0,0,0,0,.327.628.628,0,0,0,.566,0,.173.173,0,0,0,0-.327.624.624,0,0,0-.566,0" transform="translate(37.203 -37.37)" fill="#16110d"></path><path id="Path_15424" data-name="Path 15424" d="M17.473,87.586a.624.624,0,0,0-.566,0,.173.173,0,0,0,0,.327.628.628,0,0,0,.566,0,.173.173,0,0,0,0-.327" transform="translate(33.17 -36.751)" fill="#16110d"></path><path id="Path_15425" data-name="Path 15425" d="M20.026,86.112a.624.624,0,0,0-.566,0,.173.173,0,0,0,0,.327.628.628,0,0,0,.566,0,.173.173,0,0,0,0-.327" transform="translate(29.136 -36.132)" fill="#16110d"></path><path id="Path_15426" data-name="Path 15426" d="M22.013,84.688a.173.173,0,0,0,0,.327.628.628,0,0,0,.566,0,.173.173,0,0,0,0-.327Z" transform="translate(25.102 -35.563)" fill="#16110d"></path><path id="Path_15427" data-name="Path 15427" d="M6.674,90.518a.173.173,0,0,0,0,.327.628.628,0,0,0,.566,0,.173.173,0,0,0,0-.327.624.624,0,0,0-.566,0" transform="translate(49.339 -37.982)" fill="#16110d"></path><path id="Path_15428" data-name="Path 15428" d="M9.227,89.045a.173.173,0,0,0,0,.327.628.628,0,0,0,.566,0,.173.173,0,0,0,0-.327.624.624,0,0,0-.566,0" transform="translate(45.305 -37.364)" fill="#16110d"></path><path id="Path_15429" data-name="Path 15429" d="M11.663,87.947a.624.624,0,0,0,.566,0,.173.173,0,0,0,0-.327Z" transform="translate(41.389 -36.794)" fill="#16110d"></path><path id="Path_15430" data-name="Path 15430" d="M4.122,89.045a.173.173,0,0,0,0,.327.628.628,0,0,0,.566,0,.173.173,0,0,0,0-.327.624.624,0,0,0-.566,0" transform="translate(53.371 -37.364)" fill="#16110d"></path><path id="Path_15431" data-name="Path 15431" d="M6.674,87.571a.173.173,0,0,0,0,.327.628.628,0,0,0,.566,0,.173.173,0,0,0,0-.327.624.624,0,0,0-.566,0" transform="translate(49.339 -36.745)" fill="#16110d"></path><path id="Path_15432" data-name="Path 15432" d="M9.109,86.473a.624.624,0,0,0,.566,0,.173.173,0,0,0,0-.327Z" transform="translate(45.423 -36.175)" fill="#16110d"></path><path id="Path_15433" data-name="Path 15433" d="M1.569,87.571a.173.173,0,0,0,0,.327.628.628,0,0,0,.566,0,.173.173,0,0,0,0-.327.624.624,0,0,0-.566,0" transform="translate(57.405 -36.745)" fill="#16110d"></path><path id="Path_15434" data-name="Path 15434" d="M4.122,86.1a.173.173,0,0,0,0,.327.628.628,0,0,0,.566,0,.173.173,0,0,0,0-.327.624.624,0,0,0-.566,0" transform="translate(53.371 -36.126)" fill="#16110d"></path><path id="Path_15435" data-name="Path 15435" d="M6.556,85a.624.624,0,0,0,.566,0,.173.173,0,0,0,0-.327Z" transform="translate(49.457 -35.556)" fill="#16110d"></path><path id="Path_15436" data-name="Path 15436" d="M1.569,84.623a.173.173,0,0,0,0,.327.628.628,0,0,0,.566,0,.173.173,0,0,0,0-.327.624.624,0,0,0-.566,0" transform="translate(57.405 -35.507)" fill="#16110d"></path><path id="Path_15437" data-name="Path 15437" d="M37.429,96.193a.173.173,0,0,0,0,.327.628.628,0,0,0,.566,0,.173.173,0,0,0,0-.327.624.624,0,0,0-.566,0" transform="translate(0.744 -40.365)" fill="#16110d"></path><path id="Path_15438" data-name="Path 15438" d="M39.982,94.72a.173.173,0,0,0,0,.327.628.628,0,0,0,.566,0,.173.173,0,0,0,0-.327.624.624,0,0,0-.566,0" transform="translate(-3.29 -39.747)" fill="#16110d"></path><path id="Path_15439" data-name="Path 15439" d="M42.535,93.246a.173.173,0,0,0,0,.327.628.628,0,0,0,.566,0,.173.173,0,0,0,0-.327.624.624,0,0,0-.566,0" transform="translate(-7.324 -39.128)" fill="#16110d"></path><path id="Path_15440" data-name="Path 15440" d="M45.088,91.772a.173.173,0,0,0,0,.327.628.628,0,0,0,.566,0,.173.173,0,0,0,0-.327.624.624,0,0,0-.566,0" transform="translate(-11.358 -38.509)" fill="#16110d"></path><path id="Path_15441" data-name="Path 15441" d="M47.64,90.625a.624.624,0,0,0,.566,0,.173.173,0,0,0,0-.327.628.628,0,0,0-.566,0,.173.173,0,0,0,0,.327" transform="translate(-15.39 -37.89)" fill="#16110d"></path><path id="Path_15442" data-name="Path 15442" d="M50.193,88.824a.173.173,0,0,0,0,.327.628.628,0,0,0,.566,0,.173.173,0,0,0,0-.327.624.624,0,0,0-.566,0" transform="translate(-19.424 -37.271)" fill="#16110d"></path><path id="Path_15443" data-name="Path 15443" d="M52.746,87.35a.173.173,0,0,0,0,.327.628.628,0,0,0,.566,0,.173.173,0,0,0,0-.327.624.624,0,0,0-.566,0" transform="translate(-23.458 -36.652)" fill="#16110d"></path><path id="Path_15444" data-name="Path 15444" d="M55.3,85.877a.173.173,0,0,0,0,.327.628.628,0,0,0,.566,0,.173.173,0,0,0,0-.327.624.624,0,0,0-.566,0" transform="translate(-27.492 -36.033)" fill="#16110d"></path><path id="Path_15445" data-name="Path 15445" d="M57.852,84.4a.173.173,0,0,0,0,.327.628.628,0,0,0,.566,0,.173.173,0,0,0,0-.327.624.624,0,0,0-.566,0" transform="translate(-31.525 -35.414)" fill="#16110d"></path><path id="Path_15446" data-name="Path 15446" d="M60.4,82.929a.173.173,0,0,0,0,.327.628.628,0,0,0,.566,0,.173.173,0,0,0,0-.327.624.624,0,0,0-.566,0" transform="translate(-35.559 -34.795)" fill="#16110d"></path><path id="Path_15447" data-name="Path 15447" d="M32.324,96.193a.173.173,0,0,0,0,.327.628.628,0,0,0,.566,0,.173.173,0,0,0,0-.327.624.624,0,0,0-.566,0" transform="translate(8.81 -40.365)" fill="#16110d"></path><path id="Path_15448" data-name="Path 15448" d="M34.877,94.72a.173.173,0,0,0,0,.327.628.628,0,0,0,.566,0,.173.173,0,0,0,0-.327.624.624,0,0,0-.566,0" transform="translate(4.776 -39.747)" fill="#16110d"></path><path id="Path_15449" data-name="Path 15449" d="M37.429,93.246a.173.173,0,0,0,0,.327.628.628,0,0,0,.566,0,.173.173,0,0,0,0-.327.624.624,0,0,0-.566,0" transform="translate(0.744 -39.128)" fill="#16110d"></path><path id="Path_15450" data-name="Path 15450" d="M39.982,91.772a.173.173,0,0,0,0,.327.628.628,0,0,0,.566,0,.173.173,0,0,0,0-.327.624.624,0,0,0-.566,0" transform="translate(-3.29 -38.509)" fill="#16110d"></path><path id="Path_15451" data-name="Path 15451" d="M42.535,90.3a.173.173,0,0,0,0,.327.628.628,0,0,0,.566,0,.173.173,0,0,0,0-.327.624.624,0,0,0-.566,0" transform="translate(-7.324 -37.89)" fill="#16110d"></path><path id="Path_15452" data-name="Path 15452" d="M45.088,88.824a.173.173,0,0,0,0,.327.628.628,0,0,0,.566,0,.173.173,0,0,0,0-.327.624.624,0,0,0-.566,0" transform="translate(-11.358 -37.271)" fill="#16110d"></path><path id="Path_15453" data-name="Path 15453" d="M47.64,87.35a.173.173,0,0,0,0,.327.628.628,0,0,0,.566,0,.173.173,0,0,0,0-.327.624.624,0,0,0-.566,0" transform="translate(-15.39 -36.652)" fill="#16110d"></path><path id="Path_15454" data-name="Path 15454" d="M50.193,85.877a.173.173,0,0,0,0,.327.628.628,0,0,0,.566,0,.173.173,0,0,0,0-.327.624.624,0,0,0-.566,0" transform="translate(-19.424 -36.033)" fill="#16110d"></path><path id="Path_15455" data-name="Path 15455" d="M52.746,84.4a.173.173,0,0,0,0,.327.628.628,0,0,0,.566,0,.173.173,0,0,0,0-.327.624.624,0,0,0-.566,0" transform="translate(-23.458 -35.414)" fill="#16110d"></path><path id="Path_15456" data-name="Path 15456" d="M55.3,82.929a.173.173,0,0,0,0,.327.628.628,0,0,0,.566,0,.173.173,0,0,0,0-.327.624.624,0,0,0-.566,0" transform="translate(-27.492 -34.795)" fill="#16110d"></path><path id="Path_15457" data-name="Path 15457" d="M57.852,81.455a.173.173,0,0,0,0,.327.628.628,0,0,0,.566,0,.173.173,0,0,0,0-.327.624.624,0,0,0-.566,0" transform="translate(-31.525 -34.176)" fill="#16110d"></path><path id="Path_15458" data-name="Path 15458" d="M29.771,94.72a.173.173,0,0,0,0,.327.628.628,0,0,0,.566,0,.173.173,0,0,0,0-.327.624.624,0,0,0-.566,0" transform="translate(12.844 -39.747)" fill="#16110d"></path><path id="Path_15459" data-name="Path 15459" d="M32.324,93.246a.173.173,0,0,0,0,.327.628.628,0,0,0,.566,0,.173.173,0,0,0,0-.327.624.624,0,0,0-.566,0" transform="translate(8.81 -39.128)" fill="#16110d"></path><path id="Path_15460" data-name="Path 15460" d="M34.877,91.772a.173.173,0,0,0,0,.327.628.628,0,0,0,.566,0,.173.173,0,0,0,0-.327.624.624,0,0,0-.566,0" transform="translate(4.776 -38.509)" fill="#16110d"></path><path id="Path_15461" data-name="Path 15461" d="M37.429,90.3a.173.173,0,0,0,0,.327.628.628,0,0,0,.566,0,.173.173,0,0,0,0-.327.624.624,0,0,0-.566,0" transform="translate(0.744 -37.89)" fill="#16110d"></path><path id="Path_15462" data-name="Path 15462" d="M39.982,88.824a.173.173,0,0,0,0,.327.628.628,0,0,0,.566,0,.173.173,0,0,0,0-.327.624.624,0,0,0-.566,0" transform="translate(-3.29 -37.271)" fill="#16110d"></path><path id="Path_15463" data-name="Path 15463" d="M42.535,87.35a.173.173,0,0,0,0,.327.628.628,0,0,0,.566,0,.173.173,0,0,0,0-.327.624.624,0,0,0-.566,0" transform="translate(-7.324 -36.652)" fill="#16110d"></path><path id="Path_15464" data-name="Path 15464" d="M45.088,85.877a.173.173,0,0,0,0,.327.628.628,0,0,0,.566,0,.173.173,0,0,0,0-.327.624.624,0,0,0-.566,0" transform="translate(-11.358 -36.033)" fill="#16110d"></path><path id="Path_15465" data-name="Path 15465" d="M47.64,84.4a.173.173,0,0,0,0,.327.628.628,0,0,0,.566,0,.173.173,0,0,0,0-.327.624.624,0,0,0-.566,0" transform="translate(-15.39 -35.414)" fill="#16110d"></path><path id="Path_15466" data-name="Path 15466" d="M50.193,82.929a.173.173,0,0,0,0,.327.628.628,0,0,0,.566,0,.173.173,0,0,0,0-.327.624.624,0,0,0-.566,0" transform="translate(-19.424 -34.795)" fill="#16110d"></path><path id="Path_15467" data-name="Path 15467" d="M52.746,81.455a.173.173,0,0,0,0,.327.628.628,0,0,0,.566,0,.173.173,0,0,0,0-.327.624.624,0,0,0-.566,0" transform="translate(-23.458 -34.176)" fill="#16110d"></path><path id="Path_15468" data-name="Path 15468" d="M55.3,79.981a.173.173,0,0,0,0,.327.628.628,0,0,0,.566,0,.173.173,0,0,0,0-.327.624.624,0,0,0-.566,0" transform="translate(-27.492 -33.557)" fill="#16110d"></path><path id="Path_15469" data-name="Path 15469" d="M55.763,77.261a.624.624,0,0,0-.566,0,.173.173,0,0,0,0,.327.628.628,0,0,0,.566,0,.173.173,0,0,0,0-.327" transform="translate(-27.331 -32.415)" fill="#16110d"></path><path id="Path_15470" data-name="Path 15470" d="M58.315,75.787a.626.626,0,0,0-.567,0,.173.173,0,0,0,0,.327.629.629,0,0,0,.567,0,.173.173,0,0,0,0-.327" transform="translate(-31.364 -31.796)" fill="#16110d"></path><path id="Path_15471" data-name="Path 15471" d="M60.868,74.313a.624.624,0,0,0-.566,0,.173.173,0,0,0,0,.327.628.628,0,0,0,.566,0,.173.173,0,0,0,0-.327" transform="translate(-35.397 -31.177)" fill="#16110d"></path><path id="Path_15472" data-name="Path 15472" d="M63.421,72.84a.624.624,0,0,0-.566,0,.173.173,0,0,0,0,.327.628.628,0,0,0,.566,0,.173.173,0,0,0,0-.327" transform="translate(-39.431 -30.559)" fill="#16110d"></path><path id="Path_15473" data-name="Path 15473" d="M65.974,71.366a.624.624,0,0,0-.566,0,.173.173,0,0,0,0,.327.628.628,0,0,0,.566,0,.173.173,0,0,0,0-.327" transform="translate(-43.465 -29.94)" fill="#16110d"></path><path id="Path_15474" data-name="Path 15474" d="M67.961,69.892a.173.173,0,0,0,0,.327.628.628,0,0,0,.566,0,.173.173,0,0,0,0-.327.624.624,0,0,0-.566,0" transform="translate(-47.499 -29.321)" fill="#16110d"></path><path id="Path_15475" data-name="Path 15475" d="M70.514,68.418a.173.173,0,0,0,0,.327.628.628,0,0,0,.566,0,.173.173,0,0,0,0-.327.624.624,0,0,0-.566,0" transform="translate(-51.533 -28.702)" fill="#16110d"></path><path id="Path_15476" data-name="Path 15476" d="M73.066,66.944a.173.173,0,0,0,0,.327.628.628,0,0,0,.566,0,.173.173,0,0,0,0-.327.624.624,0,0,0-.566,0" transform="translate(-55.566 -28.083)" fill="#16110d"></path><path id="Path_15477" data-name="Path 15477" d="M75.619,65.47a.173.173,0,0,0,0,.327.628.628,0,0,0,.566,0,.173.173,0,0,0,0-.327.624.624,0,0,0-.566,0" transform="translate(-59.599 -27.464)" fill="#16110d"></path><path id="Path_15478" data-name="Path 15478" d="M78.172,64a.173.173,0,0,0,0,.327.628.628,0,0,0,.566,0,.173.173,0,0,0,0-.327.624.624,0,0,0-.566,0" transform="translate(-63.633 -26.845)" fill="#16110d"></path><path id="Path_15479" data-name="Path 15479" d="M81.29,62.523a.624.624,0,0,0-.566,0,.173.173,0,0,0,0,.327.628.628,0,0,0,.566,0,.173.173,0,0,0,0-.327" transform="translate(-67.666 -26.226)" fill="#16110d"></path><path id="Path_15480" data-name="Path 15480" d="M83.843,61.049a.624.624,0,0,0-.566,0,.173.173,0,0,0,0,.327.628.628,0,0,0,.566,0,.173.173,0,0,0,0-.327" transform="translate(-71.7 -25.607)" fill="#16110d"></path><path id="Path_15481" data-name="Path 15481" d="M86.4,59.575a.624.624,0,0,0-.566,0,.173.173,0,0,0,0,.327.628.628,0,0,0,.566,0,.173.173,0,0,0,0-.327" transform="translate(-75.734 -24.988)" fill="#16110d"></path><path id="Path_15482" data-name="Path 15482" d="M88.383,58.1a.173.173,0,0,0,0,.327.628.628,0,0,0,.566,0,.173.173,0,0,0,0-.327.624.624,0,0,0-.566,0" transform="translate(-79.768 -24.37)" fill="#16110d"></path><path id="Path_15483" data-name="Path 15483" d="M90.936,56.627a.173.173,0,0,0,0,.327.628.628,0,0,0,.566,0,.173.173,0,0,0,0-.327.624.624,0,0,0-.566,0" transform="translate(-83.802 -23.751)" fill="#16110d"></path><path id="Path_15484" data-name="Path 15484" d="M62.955,81.447a.173.173,0,0,0,0,.327.628.628,0,0,0,.566,0,.173.173,0,0,0,0-.327.624.624,0,0,0-.566,0" transform="translate(-39.589 -34.173)" fill="#16110d"></path><path id="Path_15485" data-name="Path 15485" d="M65.508,79.973a.173.173,0,0,0,0,.327.628.628,0,0,0,.566,0,.173.173,0,0,0,0-.327.624.624,0,0,0-.566,0" transform="translate(-43.623 -33.554)" fill="#16110d"></path><path id="Path_15486" data-name="Path 15486" d="M68.061,78.5a.173.173,0,0,0,0,.327.628.628,0,0,0,.566,0,.173.173,0,0,0,0-.327.624.624,0,0,0-.566,0" transform="translate(-47.657 -32.935)" fill="#16110d"></path><path id="Path_15487" data-name="Path 15487" d="M70.614,77.025a.173.173,0,0,0,0,.327.628.628,0,0,0,.566,0,.173.173,0,0,0,0-.327.624.624,0,0,0-.566,0" transform="translate(-51.691 -32.316)" fill="#16110d"></path><path id="Path_15488" data-name="Path 15488" d="M73.166,75.551a.173.173,0,0,0,0,.327.628.628,0,0,0,.566,0,.173.173,0,0,0,0-.327.624.624,0,0,0-.566,0" transform="translate(-55.724 -31.697)" fill="#16110d"></path><path id="Path_15489" data-name="Path 15489" d="M75.719,74.078a.173.173,0,0,0,0,.327.628.628,0,0,0,.566,0,.173.173,0,0,0,0-.327.624.624,0,0,0-.566,0" transform="translate(-59.757 -31.079)" fill="#16110d"></path><path id="Path_15490" data-name="Path 15490" d="M78.272,72.6a.173.173,0,0,0,0,.327.628.628,0,0,0,.566,0,.173.173,0,0,0,0-.327.624.624,0,0,0-.566,0" transform="translate(-63.791 -30.46)" fill="#16110d"></path><path id="Path_15491" data-name="Path 15491" d="M80.825,71.13a.173.173,0,0,0,0,.327.628.628,0,0,0,.566,0,.173.173,0,0,0,0-.327.624.624,0,0,0-.566,0" transform="translate(-67.825 -29.841)" fill="#16110d"></path><path id="Path_15492" data-name="Path 15492" d="M83.377,69.656a.173.173,0,0,0,0,.327.628.628,0,0,0,.566,0,.173.173,0,0,0,0-.327.624.624,0,0,0-.566,0" transform="translate(-71.858 -29.222)" fill="#16110d"></path><path id="Path_15493" data-name="Path 15493" d="M85.93,68.182a.173.173,0,0,0,0,.327.628.628,0,0,0,.566,0,.173.173,0,0,0,0-.327.624.624,0,0,0-.566,0" transform="translate(-75.892 -28.603)" fill="#16110d"></path><path id="Path_15494" data-name="Path 15494" d="M88.483,66.708a.173.173,0,0,0,0,.327.628.628,0,0,0,.566,0,.173.173,0,0,0,0-.327.624.624,0,0,0-.566,0" transform="translate(-79.926 -27.984)" fill="#16110d"></path><path id="Path_15495" data-name="Path 15495" d="M91.036,65.234a.173.173,0,0,0,0,.327.628.628,0,0,0,.566,0,.173.173,0,0,0,0-.327.624.624,0,0,0-.566,0" transform="translate(-83.96 -27.365)" fill="#16110d"></path><path id="Path_15496" data-name="Path 15496" d="M93.588,63.761a.173.173,0,0,0,0,.327.628.628,0,0,0,.566,0,.173.173,0,0,0,0-.327.624.624,0,0,0-.566,0" transform="translate(-87.992 -26.746)" fill="#16110d"></path><path id="Path_15497" data-name="Path 15497" d="M96.141,62.287a.173.173,0,0,0,0,.327.628.628,0,0,0,.566,0,.173.173,0,0,0,0-.327.624.624,0,0,0-.566,0" transform="translate(-92.026 -26.127)" fill="#16110d"></path><path id="Path_15498" data-name="Path 15498" d="M60.4,79.973a.173.173,0,0,0,0,.327.629.629,0,0,0,.567,0,.173.173,0,0,0,0-.327.625.625,0,0,0-.567,0" transform="translate(-35.557 -33.554)" fill="#16110d"></path><path id="Path_15499" data-name="Path 15499" d="M62.955,78.5a.173.173,0,0,0,0,.327.628.628,0,0,0,.566,0,.173.173,0,0,0,0-.327.624.624,0,0,0-.566,0" transform="translate(-39.589 -32.935)" fill="#16110d"></path><path id="Path_15500" data-name="Path 15500" d="M65.508,77.025a.173.173,0,0,0,0,.327.628.628,0,0,0,.566,0,.173.173,0,0,0,0-.327.624.624,0,0,0-.566,0" transform="translate(-43.623 -32.316)" fill="#16110d"></path><path id="Path_15501" data-name="Path 15501" d="M68.061,75.551a.173.173,0,0,0,0,.327.628.628,0,0,0,.566,0,.173.173,0,0,0,0-.327.624.624,0,0,0-.566,0" transform="translate(-47.657 -31.697)" fill="#16110d"></path><path id="Path_15502" data-name="Path 15502" d="M70.614,74.078a.173.173,0,0,0,0,.327.628.628,0,0,0,.566,0,.173.173,0,0,0,0-.327.624.624,0,0,0-.566,0" transform="translate(-51.691 -31.079)" fill="#16110d"></path><path id="Path_15503" data-name="Path 15503" d="M73.166,72.6a.173.173,0,0,0,0,.327.628.628,0,0,0,.566,0,.173.173,0,0,0,0-.327.624.624,0,0,0-.566,0" transform="translate(-55.724 -30.46)" fill="#16110d"></path><path id="Path_15504" data-name="Path 15504" d="M75.719,71.13a.173.173,0,0,0,0,.327.628.628,0,0,0,.566,0,.173.173,0,0,0,0-.327.624.624,0,0,0-.566,0" transform="translate(-59.757 -29.841)" fill="#16110d"></path><path id="Path_15505" data-name="Path 15505" d="M78.272,69.656a.173.173,0,0,0,0,.327.628.628,0,0,0,.566,0,.173.173,0,0,0,0-.327.624.624,0,0,0-.566,0" transform="translate(-63.791 -29.222)" fill="#16110d"></path><path id="Path_15506" data-name="Path 15506" d="M80.825,68.182a.173.173,0,0,0,0,.327.628.628,0,0,0,.566,0,.173.173,0,0,0,0-.327.624.624,0,0,0-.566,0" transform="translate(-67.825 -28.603)" fill="#16110d"></path><path id="Path_15507" data-name="Path 15507" d="M83.377,66.708a.173.173,0,0,0,0,.327.628.628,0,0,0,.566,0,.173.173,0,0,0,0-.327.624.624,0,0,0-.566,0" transform="translate(-71.858 -27.984)" fill="#16110d"></path><path id="Path_15508" data-name="Path 15508" d="M85.93,65.235a.173.173,0,0,0,0,.327.628.628,0,0,0,.566,0,.173.173,0,0,0,0-.327.624.624,0,0,0-.566,0" transform="translate(-75.892 -27.365)" fill="#16110d"></path><path id="Path_15509" data-name="Path 15509" d="M88.483,63.761a.173.173,0,0,0,0,.327.628.628,0,0,0,.566,0,.173.173,0,0,0,0-.327.624.624,0,0,0-.566,0" transform="translate(-79.926 -26.746)" fill="#16110d"></path><path id="Path_15510" data-name="Path 15510" d="M91.036,62.287a.173.173,0,0,0,0,.327.628.628,0,0,0,.566,0,.173.173,0,0,0,0-.327.624.624,0,0,0-.566,0" transform="translate(-83.96 -26.127)" fill="#16110d"></path><path id="Path_15511" data-name="Path 15511" d="M93.588,60.813a.173.173,0,0,0,0,.327.628.628,0,0,0,.566,0,.173.173,0,0,0,0-.327.624.624,0,0,0-.566,0" transform="translate(-87.992 -25.508)" fill="#16110d"></path><path id="Path_15512" data-name="Path 15512" d="M96.141,59.339a.173.173,0,0,0,0,.327.628.628,0,0,0,.566,0,.173.173,0,0,0,0-.327.624.624,0,0,0-.566,0" transform="translate(-92.026 -24.889)" fill="#16110d"></path><path id="Path_15513" data-name="Path 15513" d="M57.85,78.5a.173.173,0,0,0,0,.327.628.628,0,0,0,.566,0,.173.173,0,0,0,0-.327.624.624,0,0,0-.566,0" transform="translate(-31.523 -32.935)" fill="#16110d"></path><path id="Path_15514" data-name="Path 15514" d="M60.4,77.025a.173.173,0,0,0,0,.327.629.629,0,0,0,.567,0,.173.173,0,0,0,0-.327.626.626,0,0,0-.567,0" transform="translate(-35.557 -32.316)" fill="#16110d"></path><path id="Path_15515" data-name="Path 15515" d="M62.955,75.551a.173.173,0,0,0,0,.327.628.628,0,0,0,.566,0,.173.173,0,0,0,0-.327.624.624,0,0,0-.566,0" transform="translate(-39.589 -31.697)" fill="#16110d"></path><path id="Path_15516" data-name="Path 15516" d="M65.508,74.078a.173.173,0,0,0,0,.327.628.628,0,0,0,.566,0,.173.173,0,0,0,0-.327.624.624,0,0,0-.566,0" transform="translate(-43.623 -31.079)" fill="#16110d"></path><path id="Path_15517" data-name="Path 15517" d="M68.061,72.6a.173.173,0,0,0,0,.327.628.628,0,0,0,.566,0,.173.173,0,0,0,0-.327.624.624,0,0,0-.566,0" transform="translate(-47.657 -30.46)" fill="#16110d"></path><path id="Path_15518" data-name="Path 15518" d="M70.614,71.13a.173.173,0,0,0,0,.327.628.628,0,0,0,.566,0,.173.173,0,0,0,0-.327.624.624,0,0,0-.566,0" transform="translate(-51.691 -29.841)" fill="#16110d"></path><path id="Path_15519" data-name="Path 15519" d="M73.166,69.656a.173.173,0,0,0,0,.327.628.628,0,0,0,.566,0,.173.173,0,0,0,0-.327.624.624,0,0,0-.566,0" transform="translate(-55.724 -29.222)" fill="#16110d"></path><path id="Path_15520" data-name="Path 15520" d="M75.719,68.182a.173.173,0,0,0,0,.327.628.628,0,0,0,.566,0,.173.173,0,0,0,0-.327.624.624,0,0,0-.566,0" transform="translate(-59.757 -28.603)" fill="#16110d"></path><path id="Path_15521" data-name="Path 15521" d="M78.272,66.708a.173.173,0,0,0,0,.327.628.628,0,0,0,.566,0,.173.173,0,0,0,0-.327.624.624,0,0,0-.566,0" transform="translate(-63.791 -27.984)" fill="#16110d"></path><path id="Path_15522" data-name="Path 15522" d="M80.825,65.235a.173.173,0,0,0,0,.327.628.628,0,0,0,.566,0,.173.173,0,0,0,0-.327.624.624,0,0,0-.566,0" transform="translate(-67.825 -27.365)" fill="#16110d"></path><path id="Path_15523" data-name="Path 15523" d="M83.377,63.761a.173.173,0,0,0,0,.327.628.628,0,0,0,.566,0,.173.173,0,0,0,0-.327.624.624,0,0,0-.566,0" transform="translate(-71.858 -26.746)" fill="#16110d"></path><path id="Path_15524" data-name="Path 15524" d="M85.93,62.287a.173.173,0,0,0,0,.327.628.628,0,0,0,.566,0,.173.173,0,0,0,0-.327.624.624,0,0,0-.566,0" transform="translate(-75.892 -26.127)" fill="#16110d"></path><path id="Path_15525" data-name="Path 15525" d="M88.483,60.813a.173.173,0,0,0,0,.327.628.628,0,0,0,.566,0,.173.173,0,0,0,0-.327.624.624,0,0,0-.566,0" transform="translate(-79.926 -25.508)" fill="#16110d"></path><path id="Path_15526" data-name="Path 15526" d="M91.036,59.339a.173.173,0,0,0,0,.327.628.628,0,0,0,.566,0,.173.173,0,0,0,0-.327.624.624,0,0,0-.566,0" transform="translate(-83.96 -24.889)" fill="#16110d"></path><path id="Path_15527" data-name="Path 15527" d="M93.588,57.865a.173.173,0,0,0,0,.327.628.628,0,0,0,.566,0,.173.173,0,0,0,0-.327.624.624,0,0,0-.566,0" transform="translate(-87.992 -24.27)" fill="#16110d"></path><path id="Path_15528" data-name="Path 15528" d="M84.324,9.921A3.324,3.324,0,0,0,82.1,9.03L92.7,2.924a3.1,3.1,0,0,1,2.272.844Z" transform="translate(-82.095 -1.223)" fill="#e6af85"></path><path id="Path_15529" data-name="Path 15529" d="M79.864,8.314a17.507,17.507,0,0,1,1.4,5.3c.421,3.389,4.345,5.671,4.345,5.671L74.915,25.4s-3.924-2.282-4.345-5.67A17.671,17.671,0,0,0,69.2,14.491Z" transform="translate(-65.253 -3.491)" fill="#e6af85"></path><path id="Path_15530" data-name="Path 15530" d="M78,20.508l10.964-6.265-.2-.115c-.039-.023-3.873-2.29-4.281-5.573-.427-3.437-1.424-6.045-2.805-7.344a3.44,3.44,0,0,0-2.758-1.2l-.042.016-11.1,6.386.564-.035A3.417,3.417,0,0,1,70.8,7.518c1.338,1.257,2.305,3.808,2.725,7.184.425,3.414,4.247,5.674,4.41,5.769ZM88.44,14.238,78,20.2c-.508-.314-3.838-2.487-4.217-5.533-.427-3.437-1.424-6.045-2.806-7.344a4.162,4.162,0,0,0-2.192-1.182L78.988.272A3.339,3.339,0,0,1,81.5,1.4c1.337,1.256,2.3,3.808,2.725,7.184.375,3.019,3.408,5.136,4.217,5.651" transform="translate(-67.783 0)" fill="#16110d"></path><path id="Path_15531" data-name="Path 15531" d="M4.255,34.225l15.931-9.239c.017-.011.035-.02.053-.03h0a1.4,1.4,0,0,1,1.5.287L52.222,47.691A5.075,5.075,0,0,1,53.775,49.7l.6,3.394c.227.516.126.937-.152,1.029L38.4,63.3Z" transform="translate(3.533 -10.431)" fill="#cc661a"></path><path id="Path_15532" data-name="Path 15532" d="M20.167,76.586l-.308-1.592a1.293,1.293,0,0,0-1.921-.871l-8.793,5.13A2.35,2.35,0,0,0,8,81.59L8.25,83.5Z" transform="translate(35.705 -31.052)" fill="#e6af85"></path><path id="Path_15533" data-name="Path 15533" d="M38.255,63.356l15.9-9.216a.474.474,0,0,0,.274-.271,1.17,1.17,0,0,0-.071-.916l-.59-3.366a5.2,5.2,0,0,0-1.6-2.088L21.676,25.051a1.515,1.515,0,0,0-1.631-.3c-.028.016-.044.024-.059.034L4.1,34l-.057.225ZM20.571,24.875a1.674,1.674,0,0,1,.957.376L52.015,47.7a4.961,4.961,0,0,1,1.513,1.959l.589,3.366a.988.988,0,0,1,.08.743.25.25,0,0,1-.149.146L38.283,63.053,4.336,34.153l15.815-9.172a.843.843,0,0,1,.42-.106" transform="translate(3.667 -10.34)" fill="#16110d"></path><path id="Path_15534" data-name="Path 15534" d="M31.556,47.719l1.725-6.13a1.168,1.168,0,0,1,.678-.942A1.62,1.62,0,0,1,35.476,41L65.962,63.448a5.2,5.2,0,0,1,1.6,2.088l.6,3.38A.962.962,0,0,1,68.092,70a.471.471,0,0,1-.322.121.786.786,0,0,1-.386-.116L32.631,49.862a2.339,2.339,0,0,1-1.075-2.143" transform="translate(-26.082 -17.038)" fill="#16110d"></path><path id="Path_15535" data-name="Path 15535" d="M32.385,37.4l12.317-7a1.22,1.22,0,0,1,1.325.078L60.391,41.059a.488.488,0,0,1-.044.815L48.133,48.981a1.387,1.387,0,0,1-1.519-.082L32.327,38.379a.583.583,0,0,1,.058-.977" transform="translate(-18.704 -12.701)" fill="#16110d"></path><path id="Path_15536" data-name="Path 15536" d="M62.826,30.555l3.607-1.347,8.942-5.08a1.094,1.094,0,0,1,1.189.07l1.094.818.711-.265v1a.361.361,0,0,1-.18.292L65.975,33.151a1.26,1.26,0,0,1-1.164.052v0A3.019,3.019,0,0,0,63.929,33a1.063,1.063,0,0,0-.465.078l-.64.371Z" transform="translate(-54.312 -10.072)" fill="#99877d"></path><path id="Path_15537" data-name="Path 15537" d="M47.176,49.685,33.163,39.367,45.252,32.5a1.094,1.094,0,0,1,1.189.07L60.417,42.86l-11.859,6.9a1.261,1.261,0,0,1-1.382-.074" transform="translate(-19.154 -13.587)" fill="#cc661a"></path><path id="Path_15538" data-name="Path 15538" d="M82.912,56.177a.8.8,0,0,0,.772-.585l.564-1.994a.8.8,0,0,0-.371-.914L79.434,50.12a.8.8,0,0,0-1.173.476L77.7,52.591a.8.8,0,0,0,.371.913l4.443,2.566a.8.8,0,0,0,.4.108m-3.878-5.916a.546.546,0,0,1,.276.075L83.753,52.9a.552.552,0,0,1,.256.629l-.564,1.994a.553.553,0,0,1-.809.328l-4.443-2.565a.551.551,0,0,1-.256-.629l.564-1.994a.553.553,0,0,1,.533-.4" transform="translate(-68.832 -21.001)" fill="#cc661a"></path><path id="Path_15539" data-name="Path 15539" d="M7.505,82,19.66,74.957l-.325-1.679a1.417,1.417,0,0,0-2.106-.955l-8.794,5.13A2.468,2.468,0,0,0,7.23,79.914Z" transform="translate(36.659 -30.288)" fill="#16110d"></path><path id="Path_15540" data-name="Path 15540" d="M15.033,62.255l2.638-1.477a.907.907,0,0,1,.985.054l.9.661a.385.385,0,0,1-.031.642L16.961,63.69a1.026,1.026,0,0,1-1.124-.055l-.846-.622a.452.452,0,0,1,.042-.758" transform="translate(32.196 -25.472)" fill="#16110d"></path><path id="Path_15541" data-name="Path 15541" d="M19.556,61.115,16.991,62.67A.9.9,0,0,1,16,62.622L15.157,62a.328.328,0,0,1,.03-.549l2.639-1.477a.781.781,0,0,1,.849.046l.9.662a.26.26,0,0,1-.021.434" transform="translate(32.102 -25.141)" fill="#99877d"></path><path id="Path_15542" data-name="Path 15542" d="M18.911,61.15l.735.539-2.4,1.455a.9.9,0,0,1-.987-.048l-.759-.557L18.061,61.1a.781.781,0,0,1,.849.046" transform="translate(31.864 -25.615)" fill="#e6af85"></path><path id="Path_15543" data-name="Path 15543" d="M16.445,62.829a1.026,1.026,0,0,0,.52-.142l2.566-1.555a.384.384,0,0,0,.031-.641l-.9-.662a.908.908,0,0,0-.986-.053l-2.638,1.477a.452.452,0,0,0-.042.758l.846.622a1.028,1.028,0,0,0,.6.2M18.126,59.9a.658.658,0,0,1,.386.125l.9.662a.133.133,0,0,1,.056.117.134.134,0,0,1-.067.11h0l-2.565,1.554a.775.775,0,0,1-.849-.042l-.846-.622a.2.2,0,0,1,.018-.34L17.8,59.992a.661.661,0,0,1,.329-.088" transform="translate(32.192 -25.051)" fill="#16110d"></path><path id="Path_15544" data-name="Path 15544" d="M20.75,58l2.638-1.477a.906.906,0,0,1,.985.054l.9.661a.385.385,0,0,1-.031.642l-2.566,1.555a1.026,1.026,0,0,1-1.124-.055l-.846-.622A.452.452,0,0,1,20.75,58" transform="translate(23.163 -23.687)" fill="#16110d"></path><path id="Path_15545" data-name="Path 15545" d="M25.273,56.864l-2.565,1.555a.9.9,0,0,1-.987-.048l-.846-.622a.328.328,0,0,1,.03-.549l2.639-1.477a.781.781,0,0,1,.849.046l.9.662a.26.26,0,0,1-.021.434" transform="translate(23.069 -23.356)" fill="#99877d"></path><path id="Path_15546" data-name="Path 15546" d="M24.628,56.9l.735.539-2.4,1.455a.9.9,0,0,1-.987-.048l-.759-.557,2.563-1.435a.781.781,0,0,1,.849.046" transform="translate(22.831 -23.83)" fill="#e6af85"></path><path id="Path_15547" data-name="Path 15547" d="M22.162,58.578a1.026,1.026,0,0,0,.52-.142l2.566-1.555a.384.384,0,0,0,.031-.641l-.9-.662a.908.908,0,0,0-.986-.053L20.753,57a.452.452,0,0,0-.042.758l.846.622a1.028,1.028,0,0,0,.6.2m1.682-2.924a.658.658,0,0,1,.386.125l.9.662a.133.133,0,0,1,.056.117.134.134,0,0,1-.067.11h0l-2.565,1.555a.775.775,0,0,1-.849-.042l-.846-.622a.2.2,0,0,1,.018-.34l2.638-1.477a.661.661,0,0,1,.329-.088" transform="translate(23.158 -23.266)" fill="#16110d"></path><path id="Path_15548" data-name="Path 15548" d="M26.437,53.83l2.638-1.477a.906.906,0,0,1,.985.054l.9.661a.385.385,0,0,1-.031.642l-2.566,1.555a1.026,1.026,0,0,1-1.124-.055l-.846-.622a.452.452,0,0,1,.042-.758" transform="translate(14.177 -21.934)" fill="#16110d"></path><path id="Path_15549" data-name="Path 15549" d="M30.96,52.69l-2.565,1.555a.9.9,0,0,1-.987-.048l-.846-.622a.328.328,0,0,1,.03-.549l2.639-1.477a.781.781,0,0,1,.849.046l.9.662a.26.26,0,0,1-.021.434" transform="translate(14.083 -21.603)" fill="#99877d"></path><path id="Path_15550" data-name="Path 15550" d="M30.315,52.726l.735.539-2.4,1.455a.9.9,0,0,1-.987-.048l-.759-.557,2.563-1.435a.781.781,0,0,1,.849.046" transform="translate(13.845 -22.078)" fill="#e6af85"></path><path id="Path_15551" data-name="Path 15551" d="M27.849,54.4a1.026,1.026,0,0,0,.52-.142l2.566-1.555a.384.384,0,0,0,.031-.641l-.9-.662a.91.91,0,0,0-.986-.053L26.44,52.828a.452.452,0,0,0-.042.758l.846.622a1.026,1.026,0,0,0,.6.2M29.53,51.48a.658.658,0,0,1,.386.125l.9.662a.135.135,0,0,1-.01.226h0l-2.565,1.554a.775.775,0,0,1-.849-.042l-.846-.621a.2.2,0,0,1,.018-.341L29.2,51.568a.655.655,0,0,1,.329-.088" transform="translate(14.172 -21.513)" fill="#16110d"></path><path id="Path_15552" data-name="Path 15552" d="M23.065,66.959,25.7,65.482a.908.908,0,0,1,.985.054l.9.661a.385.385,0,0,1-.031.642l-2.566,1.555a1.026,1.026,0,0,1-1.124-.055l-.846-.622a.452.452,0,0,1,.042-.758" transform="translate(19.505 -27.447)" fill="#16110d"></path><path id="Path_15553" data-name="Path 15553" d="M27.588,65.819l-2.565,1.555a.9.9,0,0,1-.987-.049l-.846-.621a.328.328,0,0,1,.03-.549l2.639-1.477a.781.781,0,0,1,.849.046l.9.662a.259.259,0,0,1-.02.434" transform="translate(19.411 -27.116)" fill="#99877d"></path><path id="Path_15554" data-name="Path 15554" d="M26.943,65.854l.735.539-2.4,1.455a.9.9,0,0,1-.987-.048l-.759-.557,2.563-1.435a.781.781,0,0,1,.849.046" transform="translate(19.173 -27.591)" fill="#e6af85"></path><path id="Path_15555" data-name="Path 15555" d="M24.477,67.533a1.026,1.026,0,0,0,.52-.142l2.566-1.555a.384.384,0,0,0,.031-.641l-.9-.662a.908.908,0,0,0-.986-.053l-2.638,1.477a.452.452,0,0,0-.042.758l.846.622a1.027,1.027,0,0,0,.6.2m1.682-2.924a.658.658,0,0,1,.386.125l.9.662a.133.133,0,0,1,.056.117.134.134,0,0,1-.067.11h0l-2.565,1.554a.775.775,0,0,1-.849-.042l-.846-.622a.2.2,0,0,1,.018-.34L25.829,64.7a.661.661,0,0,1,.329-.088" transform="translate(19.5 -27.026)" fill="#16110d"></path><path id="Path_15556" data-name="Path 15556" d="M28.782,62.708l2.638-1.477a.906.906,0,0,1,.985.054l.9.661a.385.385,0,0,1-.031.642L30.71,64.142a1.026,1.026,0,0,1-1.124-.055l-.846-.622a.452.452,0,0,1,.042-.758" transform="translate(10.472 -25.662)" fill="#16110d"></path><path id="Path_15557" data-name="Path 15557" d="M33.3,61.568,30.74,63.123a.9.9,0,0,1-.987-.048l-.846-.622a.328.328,0,0,1,.03-.549l2.639-1.477a.781.781,0,0,1,.849.046l.9.662a.26.26,0,0,1-.021.434" transform="translate(10.378 -25.331)" fill="#99877d"></path><path id="Path_15558" data-name="Path 15558" d="M32.66,61.6l.735.539-2.4,1.455a.9.9,0,0,1-.987-.048l-.759-.557,2.563-1.435a.781.781,0,0,1,.849.046" transform="translate(10.14 -25.806)" fill="#e6af85"></path><path id="Path_15559" data-name="Path 15559" d="M30.194,63.282a1.026,1.026,0,0,0,.52-.142l2.566-1.555a.384.384,0,0,0,.031-.641l-.9-.662a.91.91,0,0,0-.986-.053l-2.638,1.477a.452.452,0,0,0-.042.758l.846.622a1.028,1.028,0,0,0,.6.2m1.682-2.924a.658.658,0,0,1,.386.125l.9.662a.133.133,0,0,1,.056.117.134.134,0,0,1-.067.11h0l-2.565,1.555a.775.775,0,0,1-.849-.042l-.846-.622a.2.2,0,0,1,.018-.34l2.638-1.477a.661.661,0,0,1,.329-.088" transform="translate(10.467 -25.241)" fill="#16110d"></path><path id="Path_15560" data-name="Path 15560" d="M34.469,58.534l2.638-1.477a.906.906,0,0,1,.985.054l.9.661a.385.385,0,0,1-.031.642L36.4,59.968a1.026,1.026,0,0,1-1.124-.055l-.846-.622a.452.452,0,0,1,.042-.758" transform="translate(1.486 -23.909)" fill="#16110d"></path><path id="Path_15561" data-name="Path 15561" d="M38.992,57.394l-2.565,1.555a.9.9,0,0,1-.988-.049l-.846-.621a.328.328,0,0,1,.03-.549l2.639-1.477a.781.781,0,0,1,.849.046l.9.662a.26.26,0,0,1-.021.434" transform="translate(1.392 -23.578)" fill="#99877d"></path><path id="Path_15562" data-name="Path 15562" d="M38.347,57.43l.735.539-2.4,1.455a.9.9,0,0,1-.987-.048l-.759-.557L37.5,57.384a.781.781,0,0,1,.849.046" transform="translate(1.154 -24.053)" fill="#e6af85"></path><path id="Path_15563" data-name="Path 15563" d="M35.881,59.108a1.026,1.026,0,0,0,.52-.142l2.566-1.555A.384.384,0,0,0,39,56.77l-.9-.662a.91.91,0,0,0-.986-.053l-2.638,1.477a.452.452,0,0,0-.042.758l.846.622a1.026,1.026,0,0,0,.6.2m1.682-2.924a.658.658,0,0,1,.386.125l.9.662a.133.133,0,0,1,.056.117.134.134,0,0,1-.067.11h0l-2.565,1.554a.775.775,0,0,1-.849-.042l-.846-.621a.2.2,0,0,1,.018-.34l2.638-1.476a.655.655,0,0,1,.329-.088" transform="translate(1.481 -23.489)" fill="#16110d"></path><path id="Path_15564" data-name="Path 15564" d="M31.122,71.644l2.638-1.477a.908.908,0,0,1,.985.054l.9.661a.385.385,0,0,1-.031.642L33.05,73.079a1.026,1.026,0,0,1-1.124-.055L31.08,72.4a.452.452,0,0,1,.042-.758" transform="translate(6.774 -29.415)" fill="#16110d"></path><path id="Path_15565" data-name="Path 15565" d="M35.644,70.5,33.08,72.059a.9.9,0,0,1-.988-.048l-.846-.622a.328.328,0,0,1,.03-.549l2.639-1.477a.781.781,0,0,1,.849.046l.9.662a.26.26,0,0,1-.021.434" transform="translate(6.681 -29.084)" fill="#99877d"></path><path id="Path_15566" data-name="Path 15566" d="M35,70.539l.735.539-2.4,1.455a.9.9,0,0,1-.987-.048l-.759-.557,2.563-1.435a.781.781,0,0,1,.849.046" transform="translate(6.442 -29.558)" fill="#e6af85"></path><path id="Path_15567" data-name="Path 15567" d="M32.534,72.218a1.026,1.026,0,0,0,.52-.142l2.566-1.555a.384.384,0,0,0,.031-.641l-.9-.662a.91.91,0,0,0-.986-.053l-2.638,1.477a.452.452,0,0,0-.042.758l.846.622a1.028,1.028,0,0,0,.6.2m1.682-2.924a.658.658,0,0,1,.386.125l.9.662a.133.133,0,0,1,.056.117.134.134,0,0,1-.067.11h0l-2.565,1.554a.775.775,0,0,1-.849-.042L31.23,71.2a.2.2,0,0,1,.018-.341l2.638-1.476a.655.655,0,0,1,.329-.088" transform="translate(6.77 -28.994)" fill="#16110d"></path><path id="Path_15568" data-name="Path 15568" d="M36.839,67.393l2.638-1.477a.907.907,0,0,1,.985.053l.9.662a.385.385,0,0,1-.031.642l-2.566,1.555a1.026,1.026,0,0,1-1.124-.055L36.8,68.15a.452.452,0,0,1,.042-.758" transform="translate(-2.259 -27.629)" fill="#16110d"></path><path id="Path_15569" data-name="Path 15569" d="M41.361,66.253,38.8,67.808a.9.9,0,0,1-.988-.048l-.846-.622a.328.328,0,0,1,.03-.549l2.639-1.477a.781.781,0,0,1,.849.046l.9.662a.26.26,0,0,1-.021.434" transform="translate(-2.353 -27.298)" fill="#99877d"></path><path id="Path_15570" data-name="Path 15570" d="M40.717,66.288l.735.539-2.4,1.455a.9.9,0,0,1-.987-.048l-.759-.557,2.563-1.435a.781.781,0,0,1,.849.046" transform="translate(-2.591 -27.773)" fill="#e6af85"></path><path id="Path_15571" data-name="Path 15571" d="M38.251,67.967a1.026,1.026,0,0,0,.52-.142l2.566-1.555a.384.384,0,0,0,.031-.641l-.9-.662a.91.91,0,0,0-.986-.053l-2.638,1.477a.452.452,0,0,0-.042.758l.846.622a1.028,1.028,0,0,0,.6.2m1.682-2.924a.657.657,0,0,1,.386.125l.9.662a.133.133,0,0,1,.056.117.134.134,0,0,1-.067.11h0l-2.565,1.554a.775.775,0,0,1-.849-.042l-.846-.621a.2.2,0,0,1,.018-.341L39.6,65.131a.655.655,0,0,1,.329-.088" transform="translate(-2.264 -27.209)" fill="#16110d"></path><path id="Path_15572" data-name="Path 15572" d="M42.526,63.219l2.638-1.477a.908.908,0,0,1,.985.054l.9.661a.385.385,0,0,1-.031.642l-2.566,1.555A1.026,1.026,0,0,1,43.33,64.6l-.846-.622a.452.452,0,0,1,.042-.758" transform="translate(-11.245 -25.877)" fill="#16110d"></path><path id="Path_15573" data-name="Path 15573" d="M47.049,62.079l-2.565,1.555a.9.9,0,0,1-.988-.049l-.846-.621a.328.328,0,0,1,.03-.549l2.639-1.477a.781.781,0,0,1,.849.046l.9.662a.26.26,0,0,1-.021.434" transform="translate(-11.339 -25.546)" fill="#99877d"></path><path id="Path_15574" data-name="Path 15574" d="M46.4,62.115l.734.539-2.4,1.455a.9.9,0,0,1-.987-.048l-.759-.557,2.563-1.435a.782.782,0,0,1,.85.046" transform="translate(-11.576 -26.021)" fill="#e6af85"></path><path id="Path_15575" data-name="Path 15575" d="M43.938,63.793a1.026,1.026,0,0,0,.52-.142L47.023,62.1a.384.384,0,0,0,.031-.641l-.9-.662a.908.908,0,0,0-.986-.053l-2.638,1.477a.452.452,0,0,0-.042.758l.846.622a1.028,1.028,0,0,0,.6.2m1.682-2.924a.658.658,0,0,1,.386.125l.9.662a.133.133,0,0,1,.056.117.134.134,0,0,1-.067.11h0L44.33,63.437a.775.775,0,0,1-.849-.042l-.846-.622a.2.2,0,0,1,.018-.34l2.638-1.477a.661.661,0,0,1,.329-.088" transform="translate(-11.25 -25.456)" fill="#16110d"></path><path id="Path_15576" data-name="Path 15576" d="M45.071,62.377a1.048,1.048,0,0,1,.952.11l13.623,9.024a3.351,3.351,0,0,1,1.338,1.773L61.66,75.5l-.316-.183-.6-1.959a3.1,3.1,0,0,0-1.237-1.639L45.886,62.695a.807.807,0,0,0-.445-.135.818.818,0,0,0-.284.051.8.8,0,0,0-.5.539l-.611,2.141-.222-.129.594-2.081a1.047,1.047,0,0,1,.65-.7" transform="translate(-26.584 -26.166)" fill="#cc661a"></path><path id="Path_15577" data-name="Path 15577" d="M78.187,24.335,65.973,31.441a1.262,1.262,0,0,1-1.382-.074L63.01,30.184a.459.459,0,0,1,.046-.768l12.317-7a1.094,1.094,0,0,1,1.189.07l1.657,1.24a.364.364,0,0,1-.032.607" transform="translate(-54.31 -9.354)" fill="#cc661a"></path><path id="Path_15578" data-name="Path 15578" d="M78.187,26.045,65.973,33.151a1.262,1.262,0,0,1-1.382-.074L63.01,31.894a.459.459,0,0,1,.046-.768l12.317-7a1.094,1.094,0,0,1,1.189.07l1.657,1.24a.364.364,0,0,1-.032.607" transform="translate(-54.31 -10.072)" fill="#e6af85"></path><path id="Path_15579" data-name="Path 15579" d="M65.248,31.648a1.39,1.39,0,0,0,.7-.188l12.214-7.106a.488.488,0,0,0,.044-.816L76.546,22.3a1.223,1.223,0,0,0-1.325-.078l-12.317,7a.584.584,0,0,0-.058.977l1.581,1.182a1.384,1.384,0,0,0,.823.271M75.822,22.31a.974.974,0,0,1,.575.189l1.656,1.239a.237.237,0,0,1,.1.206.234.234,0,0,1-.119.194L65.82,31.244a1.135,1.135,0,0,1-1.245-.067l-1.581-1.182a.335.335,0,0,1,.032-.56l12.318-7a.965.965,0,0,1,.479-.126" transform="translate(-54.219 -9.264)" fill="#16110d"></path><path id="Path_15580" data-name="Path 15580" d="M47.275,34.271,60.1,43.712l-10.7,6.227a1.262,1.262,0,0,1-1.382-.075L35.165,40.405l10.921-6.2a1.094,1.094,0,0,1,1.189.07" transform="translate(-19.994 -14.302)" fill="#e6af85"></path><path id="Path_15581" data-name="Path 15581" d="M47.763,49.966a1.385,1.385,0,0,0,.7-.189l12.022-7-14.128-10.4a1.222,1.222,0,0,0-1.325-.079L32.774,39.263,46.942,49.7a1.385,1.385,0,0,0,.821.27M60.03,42.758l-11.694,6.8A1.136,1.136,0,0,1,47.09,49.5l-13.859-10.2,11.922-6.774a.969.969,0,0,1,1.054.062Z" transform="translate(-18.994 -13.497)" fill="#16110d"></path><path id="Path_15582" data-name="Path 15582" d="M62.609,34.02h0V30.971l.141-.052a.455.455,0,0,0,.108.428v.033l1.522,1.185.212.081a1.244,1.244,0,0,0,.44.168l.054.021.041-.009a1.259,1.259,0,0,0,.756-.162v.847l12.152-7.07a.236.236,0,0,0,.118-.194v-.733a.36.36,0,0,0,.1-.385l.144-.054v1.189a.485.485,0,0,1-.241.393L65.946,33.762a1.38,1.38,0,0,1-1.1.124v.006l-.171-.068a3.233,3.233,0,0,0-.834-.2,1.087,1.087,0,0,0-.4.06l-.827.48Z" transform="translate(-54.22 -10.529)" fill="#16110d"></path><path id="Path_15583" data-name="Path 15583" d="M9.786,80.636l9.321-5.371a.79.79,0,1,0-.789-1.37L9,79.267a.79.79,0,0,0,.789,1.37" transform="translate(36.007 -30.986)" fill="#cc661a"></path><path id="Path_15584" data-name="Path 15584" d="M9.5,80.6l9.787-5.671a.264.264,0,1,0-.265-.457L9.239,80.146A.264.264,0,0,0,9.5,80.6" transform="translate(35.794 -31.259)" fill="#16110d"></path><path id="Path_15585" data-name="Path 15585" d="M1.184,80.355,9.21,75.7l5.778,3.445.241-.027v.327a.293.293,0,0,1,0,.032.3.3,0,0,1-.145.242l-7.749,4.62a.929.929,0,0,1-.949,0L.116,80.627l.3-.187Z" transform="translate(45.203 -31.788)" fill="#cc661a"></path><path id="Path_15586" data-name="Path 15586" d="M6.874,84.479a.993.993,0,0,0,.508-.14l7.749-4.62a.362.362,0,0,0,.178-.3c0-.013,0-.025,0-.038v-.4l-.292.032L9.224,75.566l-.034.019-8.015,4.65L.4,80.328,0,80.573,6.366,84.34a1,1,0,0,0,.508.139m8.3-5.344v.253a.222.222,0,0,1,0,.028.229.229,0,0,1-.113.189l-7.749,4.62a.863.863,0,0,1-.882,0L.257,80.57l.2-.122.777-.092,7.993-4.637,5.764,3.436Z" transform="translate(45.189 -31.732)" fill="#16110d"></path><path id="Path_15587" data-name="Path 15587" d="M8.906,75.081l5.874,3.5a.3.3,0,0,1,0,.517l-7.749,4.62a.929.929,0,0,1-.949,0L.114,80.181Z" transform="translate(45.507 -31.528)" fill="#cc661a"></path><path id="Path_15588" data-name="Path 15588" d="M7.674,84.192a.931.931,0,0,1-.949,0L2.657,81.787a.563.563,0,0,1,0-.971l6.365-3.692a1.913,1.913,0,0,1,1.938.012l3.466,2.06a.563.563,0,0,1,0,.967Z" transform="translate(44.413 -32.278)" fill="#e6af85"></path><path id="Path_15589" data-name="Path 15589" d="M6.573,83.861a.993.993,0,0,0,.508-.14L14.83,79.1a.367.367,0,0,0,0-.63L8.923,74.948l-.034.02L0,80.124l6.065,3.6a1,1,0,0,0,.508.139M8.922,75.1l5.841,3.483a.235.235,0,0,1,0,.4L7.014,83.608a.864.864,0,0,1-.882,0L.261,80.125Z" transform="translate(45.49 -31.473)" fill="#16110d"></path><path id="Path_15590" data-name="Path 15590" d="M9.639,82.245l.408.236,1.342-.775-.408-.236a.582.582,0,0,0-.524.022l-.78.45c-.155.09-.172.225-.038.3" transform="translate(43.572 -34.189)" fill="#16110d"></path><path id="Path_15591" data-name="Path 15591" d="M6.826,83.756l.415.24a.589.589,0,0,0,.53-.022l.775-.447c.157-.09.173-.227.038-.306l-.415-.24Z" transform="translate(47.866 -34.846)" fill="#16110d"></path><path id="Path_15592" data-name="Path 15592" d="M7.93,82.822l.8.465,1.342-.775-.8-.465Z" transform="translate(45.823 -34.454)" fill="#16110d"></path><path id="Path_15593" data-name="Path 15593" d="M13.1,87.242c-.239.137-.282.265-.126.355a.627.627,0,0,0,.593-.074c.236-.136.263-.27.121-.352a.6.6,0,0,0-.588.071m.371.226a.48.48,0,0,1-.429.083c-.1-.056-.03-.148.149-.252s.331-.14.429-.083.042.142-.149.252" transform="translate(39.246 -36.584)" fill="#16110d"></path><path id="Path_15594" data-name="Path 15594" d="M14.06,86.69c-.239.137-.282.265-.126.355a.627.627,0,0,0,.593-.074c.236-.136.263-.27.121-.352a.6.6,0,0,0-.588.071m.371.226A.48.48,0,0,1,14,87c-.1-.056-.03-.148.149-.252s.331-.14.429-.084.042.142-.149.252" transform="translate(37.736 -36.353)" fill="#16110d"></path><path id="Path_15595" data-name="Path 15595" d="M15.017,86.138c-.239.137-.282.265-.126.355a.627.627,0,0,0,.593-.074c.236-.136.264-.27.121-.352a.6.6,0,0,0-.588.071m.371.226a.48.48,0,0,1-.429.083c-.1-.056-.03-.148.149-.252s.331-.14.429-.084.042.142-.149.252" transform="translate(36.224 -36.121)" fill="#16110d"></path><path id="Path_15596" data-name="Path 15596" d="M16.478,85.6h0l.056.108.09-.031-.071-.136-.081-.047-.7.406.092.053Z" transform="translate(34.723 -35.902)" fill="#16110d"></path><path id="Path_15597" data-name="Path 15597" d="M17.325,84.8c-.239.137-.282.265-.126.355a.627.627,0,0,0,.593-.074c.236-.136.263-.27.121-.352a.6.6,0,0,0-.588.071m.371.226a.48.48,0,0,1-.429.083c-.1-.056-.03-.149.149-.252s.331-.14.429-.083.042.142-.149.252" transform="translate(32.577 -35.561)" fill="#16110d"></path><path id="Path_15598" data-name="Path 15598" d="M18.41,84.73l.059-.034,0-.085c-.008-.2,0-.3.107-.364a.267.267,0,0,1,.276,0,.167.167,0,0,1,.089.12l.1-.021a.23.23,0,0,0-.128-.156.429.429,0,0,0-.419-.006c-.129.075-.14.19-.135.357l0,.063h0l-.315-.182-.079.045Z" transform="translate(31.044 -35.33)" fill="#16110d"></path><path id="Path_15599" data-name="Path 15599" d="M19.238,83.7c-.239.137-.282.265-.126.355a.627.627,0,0,0,.593-.074c.236-.136.263-.27.121-.352a.6.6,0,0,0-.588.071m.371.226a.48.48,0,0,1-.429.083c-.1-.056-.03-.148.149-.252s.331-.14.429-.084.042.142-.149.252" transform="translate(29.554 -35.097)" fill="#16110d"></path><path id="Path_15600" data-name="Path 15600" d="M20.7,83.165h0l.056.108.09-.031-.071-.136L20.7,83.06l-.7.406.092.053Z" transform="translate(28.053 -34.879)" fill="#16110d"></path><path id="Path_15601" data-name="Path 15601" d="M21.546,82.368c-.239.137-.282.265-.126.355a.627.627,0,0,0,.593-.074c.236-.136.263-.27.121-.352a.6.6,0,0,0-.588.071m.371.226a.48.48,0,0,1-.429.083c-.1-.056-.03-.148.149-.252s.331-.14.429-.083.042.142-.149.252" transform="translate(25.907 -34.538)" fill="#16110d"></path><path id="Path_15602" data-name="Path 15602" d="M21.317,87.543v.39l-.3-.1-6.4-3.776.3-.187,6.181,3.632Z" transform="translate(30.708 -35.22)" fill="#16110d"></path></g></svg> 